<svg width="35" height="37" viewBox="0 0 35 37" fill="none" xmlns="http://www.w3.org/2000/svg">
<path d="M12.0439 3.3759C13.4363 4.31831 14.8401 5.24181 16.2693 6.11727C17.1418 6.66465 18.0063 7.2317 18.9394 7.67091C19.1956 7.79043 19.4985 7.83092 19.7098 8.03706L19.7072 8.03287C19.9762 8.15891 20.2602 8.26683 20.517 8.41519C21.4884 8.98515 22.5502 9.48963 23.4673 10.0615C23.5052 10.0845 23.5712 10.0781 23.6253 10.1084C23.892 10.2447 24.806 10.7836 25.4254 11.0722C26.839 11.7646 28.2622 12.4306 29.5904 13.3081C29.6928 13.3782 30.5171 13.8069 31.2734 14.3133C32.037 14.8035 32.7428 15.3738 32.5916 15.7376C32.433 16.1176 31.5523 16.0457 30.6565 15.8518C29.7671 15.6451 28.8633 15.313 28.6719 15.2083C28.2117 14.9453 27.748 14.6815 27.2844 14.4177C26.8207 14.1539 26.3508 13.9174 25.8426 13.7547C24.3645 13.2663 23.0404 12.4651 21.6674 11.7676C21.05 11.4543 20.4441 11.1221 19.8447 10.7771L18.0366 9.75409C16.8951 9.12735 15.6969 8.59171 14.6079 7.87648C13.6694 7.25663 12.8453 6.46556 11.9688 5.76297C11.7626 5.59745 11.4134 5.53924 11.1849 5.36145C10.9961 5.21425 10.6738 4.97557 10.5247 4.78003C10.4576 4.69654 10.3963 4.60359 10.2963 4.56999C10.0657 4.49578 9.2362 3.85418 8.53765 3.14201C7.84904 2.41776 7.30161 1.62528 7.61151 1.25828C7.91302 0.896541 8.71587 1.23063 9.58968 1.75676C10.4784 2.26477 11.4407 2.969 12.0439 3.3759Z" fill="#035771"/>
<path d="M10.4236 14.4129C11.7866 15.0436 13.144 15.6838 14.4979 16.3231C15.3299 16.7177 16.1409 17.1577 17.0103 17.4676C17.2488 17.5543 17.5273 17.5605 17.7244 17.7347L17.7209 17.7339C17.9724 17.8272 18.2326 17.8975 18.471 18.0165C19.3722 18.4699 20.3453 18.8752 21.1795 19.3708C21.2113 19.3888 21.2739 19.3816 21.3254 19.4077C21.5629 19.5301 22.3988 19.9866 22.9498 20.2452C24.2223 20.8481 25.4852 21.4774 26.633 22.3281C26.8105 22.4619 29.4794 24.0368 29.1205 24.7443C28.7477 25.4809 25.975 24.3918 25.6476 24.1914C24.8494 23.7113 24.1 23.1274 23.2058 22.8478C21.904 22.4357 20.7432 21.7363 19.5182 21.1767C18.4166 20.6738 17.35 20.0965 16.2434 19.5997C15.2053 19.133 14.1069 18.7888 13.09 18.2766C12.2145 17.8362 11.4236 17.2142 10.5766 16.7121C10.3773 16.5948 10.0635 16.6021 9.84033 16.4794C9.65576 16.3762 9.34783 16.2162 9.19279 16.0623C9.12525 15.9967 9.06005 15.9208 8.96641 15.9066C8.54596 15.8464 5.71045 14.2155 6.15902 13.3671C6.60029 12.5349 9.24292 13.8633 10.4236 14.4129Z" fill="#035771"/>
<path d="M16.3737 23.5219C17.1498 23.8319 17.9227 24.1556 18.6922 24.4785C19.1639 24.6759 19.617 24.923 20.1259 25.0356C20.2657 25.0676 20.4421 25.0181 20.5431 25.1417L20.5397 25.1409C20.6855 25.1778 20.8437 25.1924 20.9765 25.255C21.4847 25.4967 22.0467 25.6753 22.5041 25.9664C22.523 25.9779 22.5634 25.9584 22.5925 25.9722C22.728 26.039 23.194 26.2926 23.5047 26.4246C24.228 26.7297 24.9425 27.058 25.5479 27.6125C25.643 27.6988 27.1113 28.6227 26.7781 29.3432C26.4318 30.0895 24.8237 29.636 24.6423 29.5192C24.2046 29.2362 23.8088 28.848 23.2826 28.7637C22.5104 28.6412 21.8765 28.2272 21.175 27.9522C20.5454 27.7079 19.9516 27.3857 19.317 27.1474C18.7226 26.922 18.0713 26.8198 17.5015 26.5497C17.0061 26.3146 16.5946 25.9012 16.1303 25.6086C16.0203 25.5404 15.8181 25.609 15.6944 25.5377C15.5931 25.4787 15.419 25.3923 15.3404 25.281C15.308 25.2342 15.2746 25.1763 15.2187 25.1851C14.9571 25.215 13.3891 24.272 13.8025 23.4047C14.2102 22.5469 15.7003 23.2497 16.3737 23.5219Z" fill="#035771"/>
<path d="M20.5316 32.6068C20.9511 32.7026 21.3682 32.8086 21.7854 32.9147C22.0396 32.9799 22.2821 33.0963 22.5634 33.0744C22.6397 33.0703 22.7465 32.9799 22.795 33.0663C22.8747 33.063 22.9666 33.0373 23.0367 33.0605C23.3086 33.1585 23.618 33.1861 23.8596 33.3382C23.8691 33.3439 23.8939 33.3137 23.9102 33.321C23.9829 33.3484 24.228 33.469 24.3978 33.5114C24.7903 33.6154 25.1739 33.7425 25.4784 34.1062C25.5262 34.1638 26.2967 34.6556 26.0498 35.4066C25.7924 36.1875 24.9069 36.1682 24.8105 36.1031C24.58 35.95 24.3854 35.6867 24.0895 35.7411C23.6549 35.8212 23.3235 35.5913 22.9426 35.515C22.6 35.4439 22.2855 35.2968 21.9413 35.2325C21.6176 35.1729 21.2541 35.2406 20.9447 35.134C20.6789 35.041 20.4745 34.7575 20.2303 34.6013C20.1744 34.5634 20.0511 34.6787 19.9868 34.6461C19.9328 34.6158 19.8404 34.5804 19.8056 34.4971C19.7887 34.4609 19.7776 34.4153 19.7441 34.4364C19.594 34.5277 18.7678 34.0447 19.0725 33.1347C19.3666 32.2402 20.1667 32.5234 20.5316 32.6068Z" fill="#035771"/>
</svg>
