<svg width="101" height="30" viewBox="0 0 101 30" fill="none" xmlns="http://www.w3.org/2000/svg">
<path d="M66.3014 7.12465L66.294 7.12638C66.2089 7.14531 66.1211 7.17667 65.9955 7.22417C65.9874 7.22724 65.9787 7.23055 65.9695 7.23406C65.8672 7.27301 65.701 7.33633 65.5365 7.36758M66.3014 7.12465L65.395 6.63106M66.3014 7.12465C66.9609 6.9706 68.4068 6.66636 70.0833 6.31361C71.927 5.92567 74.0495 5.47907 75.7118 5.10899M66.3014 7.12465L75.5495 4.37674M65.5365 7.36758C65.5354 7.3678 65.5342 7.36802 65.533 7.36824L65.395 6.63106M65.5365 7.36758C65.5373 7.36744 65.538 7.3673 65.5387 7.36715L65.395 6.63106M65.5365 7.36758C61.8566 8.08644 57.9931 9.06671 54.1367 10.0452C52.7754 10.3906 51.4151 10.7358 50.0639 11.0692M65.395 6.63106C61.6921 7.35431 57.7977 8.34245 53.9344 9.32271C52.5766 9.66722 51.2227 10.0107 49.8823 10.3415M50.0639 11.0692C50.0646 11.069 50.0653 11.0688 50.066 11.0686L49.8823 10.3415M50.0639 11.0692C50.0633 11.0693 50.0626 11.0695 50.062 11.0696L49.8823 10.3415M50.0639 11.0692L49.8823 10.3415M45.8916 11.704L45.9313 11.9754L45.9529 12.1222L45.8107 11.5568C45.8223 11.5551 45.8339 11.5533 45.8455 11.5515C45.8456 11.5515 45.8456 11.5515 45.8457 11.5515L45.8459 11.5527L45.8916 11.704ZM45.8916 11.704L45.9179 11.791L45.9504 11.8987L45.8879 11.54C45.8814 11.542 45.8749 11.5439 45.8684 11.5459C45.8684 11.5459 45.8684 11.5459 45.8683 11.5459L45.8688 11.5481L45.8916 11.704ZM100.081 1.83504L100.081 1.83484C100.044 1.58549 99.9566 1.47308 99.8784 1.40764C99.7845 1.32903 99.6288 1.25817 99.378 1.21886C98.9159 1.14643 98.3744 1.20786 97.8242 1.27026C97.7379 1.28005 97.6513 1.28987 97.5648 1.2992M100.081 1.83504L97.4844 0.553525M100.081 1.83504C100.18 2.48725 100.015 2.98795 99.6827 3.36043C99.3363 3.74872 98.7425 4.06804 97.8715 4.19698L97.8701 4.1972M100.081 1.83504L97.8701 4.1972M97.5648 1.2992L97.4844 0.553525M97.5648 1.2992C97.5648 1.2992 97.5649 1.29919 97.5649 1.29919L97.4844 0.553525M97.5648 1.2992C90.2239 2.0922 82.9543 3.50922 75.7118 5.10899M97.4844 0.553525C90.1031 1.35088 82.8023 2.7747 75.5495 4.37674M75.7118 5.10899C75.712 5.10893 75.7123 5.10887 75.7125 5.10882L75.5495 4.37674M75.7118 5.10899C75.7116 5.10902 75.7115 5.10906 75.7113 5.10909L75.5495 4.37674M97.8701 4.1972C97.1543 4.30457 96.4451 4.40162 95.7299 4.49948C95.2445 4.5659 94.7564 4.63268 94.2616 4.70334L94.2607 4.70346M97.8701 4.1972L94.2607 4.70346M94.2607 4.70346L94.2584 4.7038C93.0551 4.87709 91.8471 5.05105 90.6426 5.23774C88.2163 5.60497 85.8059 6.07849 83.4348 6.70132L83.4309 6.70237M94.2607 4.70346L83.4309 6.70237M83.4309 6.70237C80.0296 7.61552 76.5995 8.38971 73.1536 9.14881C72.6557 9.25851 72.1573 9.36791 71.6586 9.47738C68.7112 10.1244 65.7536 10.7736 62.812 11.4995L62.8109 11.4997M83.4309 6.70237L62.8109 11.4997M62.8109 11.4997C61.3657 11.8585 59.9175 12.2136 58.468 12.569C53.7602 13.7232 49.0386 14.8807 44.3594 16.1798L44.3548 16.1811M62.8109 11.4997L44.3548 16.1811M44.3548 16.1811C42.9178 16.5899 41.4868 17.0154 40.0595 17.4473L40.058 17.4478M44.3548 16.1811L40.058 17.4478M40.058 17.4478C39.8655 17.5065 39.6717 17.5652 39.4773 17.6241C38.9589 17.7812 38.4355 17.9398 37.9167 18.1037L37.9164 18.1038M40.058 17.4478L37.9164 18.1038M37.9164 18.1038L35.7905 18.7764L35.7877 18.7772L31.5296 20.1061L31.5287 20.1064M37.9164 18.1038L31.5287 20.1064M31.5287 20.1064C30.1143 20.5498 28.699 20.9784 27.2773 21.383C26.0426 21.7295 24.8129 22.0715 23.5777 22.3924L23.5768 22.3926M31.5287 20.1064L23.5768 22.3926M23.5768 22.3926C22.3408 22.7152 21.0977 23.023 19.8501 23.3289L19.8443 23.3304M23.5768 22.3926L19.8443 23.3304M19.8443 23.3304L16.1071 24.2783L16.1071 24.2783M19.8443 23.3304L16.1071 24.2783M16.1071 24.2783L16.1038 24.2791L16.1071 24.2783ZM4.82735 27.7823L4.82808 27.7821C5.59863 27.637 6.72499 27.2969 7.70557 27.0008C8.03501 26.9013 8.34799 26.8068 8.6255 26.7263C9.20919 26.5534 9.80761 26.2953 10.443 26.0199L10.4744 26.0063C11.0813 25.7432 11.7311 25.4616 12.3583 25.2824C12.3588 25.2822 12.3594 25.282 12.3599 25.2819L12.5658 26.0031L4.82735 27.7823ZM4.82735 27.7823C4.78202 27.7909 4.73446 27.7996 4.68501 27.8087C4.2776 27.8835 3.74216 27.9819 3.27039 28.2105C2.81818 28.429 2.48309 28.5459 2.24223 28.5903C2.12495 28.612 2.04663 28.6131 1.99856 28.6084C1.97535 28.6061 1.9607 28.6026 1.95267 28.6002C1.94864 28.599 1.94601 28.5979 1.94451 28.5973L1.94221 28.5962C1.94216 28.5962 1.94213 28.5962 1.94212 28.5962M4.82735 27.7823L1.66678 26.5728M1.66678 26.5728C1.66745 26.5836 1.66897 26.5994 1.67228 26.6212C1.68018 26.6734 1.68912 26.7129 1.70238 26.7716C1.71088 26.8092 1.72115 26.8546 1.73407 26.9163C1.76057 27.0428 1.79471 27.2279 1.7867 27.4337C1.76898 27.903 1.80153 28.215 1.85718 28.411C1.88381 28.5048 1.91098 28.5546 1.92685 28.5777C1.93443 28.5888 1.9394 28.5937 1.9409 28.5951L1.94183 28.5959L1.94212 28.5962M1.66678 26.5728L1.66777 26.5718L1.67448 26.564C1.67448 26.564 1.67598 26.5623 1.68098 26.5568L1.70399 26.5309C1.71299 26.5207 1.72563 26.5061 1.73912 26.4895C1.74893 26.4774 1.76644 26.4555 1.7857 26.4278C2.22546 25.8111 2.77213 25.4953 3.42748 25.2673C3.76676 25.1493 4.12266 25.0589 4.51734 24.9592L4.52937 24.9562C4.90953 24.8601 5.32634 24.7548 5.7371 24.6122L1.66678 26.5728ZM1.94212 28.5962C1.94211 28.5961 1.94211 28.5961 1.94212 28.5962M1.94212 28.5962L1.94212 28.5962M1.94212 28.5962L1.94212 28.5962L1.94212 28.5962M28.2978 17.4942C28.298 17.4942 28.2982 17.4941 28.2984 17.4941L28.0856 16.7749L28.2975 17.4943C28.2976 17.4943 28.2977 17.4943 28.2978 17.4942Z" fill="#035771" stroke="#035771" stroke-width="1.5"/>
</svg>
