<svg width="21" height="33" viewBox="0 0 21 33" fill="none" xmlns="http://www.w3.org/2000/svg">
<path d="M2.96614 12.5367C4.13624 11.5897 5.31539 10.6519 6.49152 9.71095C7.2153 9.13495 7.96621 8.59513 8.63872 7.95882C8.82268 7.7839 8.9614 7.54868 9.19964 7.44011L9.19662 7.44313C9.39264 7.26219 9.5766 7.06014 9.79072 6.9003C10.5959 6.28811 11.3951 5.5945 12.2033 5.05167C12.2365 5.03056 12.2576 4.97326 12.3028 4.94008C12.5169 4.77724 13.292 4.22234 13.7715 3.83934C14.8813 2.95875 16.0001 2.09626 17.2516 1.40566C17.4476 1.29709 20.0231 -0.439973 20.4332 0.105873C20.8614 0.672829 18.6358 2.66622 18.3162 2.87732C17.5381 3.39603 16.6967 3.83632 16.0393 4.49978C15.0773 5.47085 13.9434 6.21875 12.8939 7.07521C11.95 7.84422 10.9638 8.55895 10.0259 9.33098C9.14536 10.0578 8.33413 10.878 7.42639 11.5686C6.64231 12.1657 5.75569 12.6272 4.93541 13.179C4.7424 13.3087 4.59765 13.5801 4.38956 13.7249C4.21767 13.8455 3.9372 14.0566 3.73515 14.138C3.64769 14.1742 3.55421 14.2044 3.49992 14.2768C3.24962 14.6145 0.547532 16.4782 0.062001 15.8087C-0.411467 15.1573 1.94984 13.36 2.96614 12.5367Z" fill="#035771"/>
<path d="M5.21497 17.974C5.99001 17.6363 6.76807 17.3076 7.54613 16.9819C8.02261 16.7798 8.51719 16.623 8.96653 16.3486C9.09018 16.2732 9.18367 16.1284 9.34048 16.1314H9.33747C9.46714 16.056 9.59079 15.9595 9.73253 15.9053C10.2633 15.7062 10.7941 15.4378 11.3248 15.2991C11.3459 15.2931 11.361 15.2539 11.3912 15.2418C11.5329 15.1905 12.0426 15.0277 12.3592 14.895C13.092 14.5904 13.8309 14.3039 14.6482 14.2225C14.7748 14.2104 16.4666 13.7671 16.7109 14.4034C16.9642 15.0669 15.4865 15.8751 15.2754 15.9264C14.7658 16.056 14.2169 16.0922 13.7766 16.3938C13.1343 16.8371 12.3924 17.0211 11.6958 17.3287C11.0715 17.6061 10.4231 17.8172 9.80189 18.1007C9.21684 18.3661 8.67702 18.74 8.0769 18.9662C7.56121 19.1592 6.98219 19.1954 6.44237 19.3341C6.31571 19.3673 6.21619 19.5422 6.07747 19.5814C5.96287 19.6146 5.77891 19.6809 5.64924 19.6689C5.59194 19.6628 5.53163 19.6508 5.49544 19.693C5.32656 19.883 3.55029 20.3836 3.2638 19.6055C2.98635 18.8486 4.54548 18.2666 5.21497 17.974Z" fill="#035771"/>
<path d="M8.48687 22.9526C9.0689 22.8048 9.65094 22.663 10.233 22.5243C10.5918 22.4399 10.9567 22.3977 11.2975 22.2378C11.391 22.1926 11.4694 22.075 11.581 22.1142H11.578C11.6775 22.0689 11.774 22.0056 11.8765 21.9875C12.2716 21.9151 12.6727 21.7764 13.0617 21.7644C13.0768 21.7644 13.0919 21.7282 13.113 21.7252C13.2185 21.7071 13.5955 21.6648 13.8337 21.6106C14.3826 21.4809 14.9345 21.3753 15.5256 21.4809C15.6191 21.496 16.8645 21.4537 16.9942 22.1232C17.1269 22.8199 16.0081 23.2632 15.8543 23.2662C15.4773 23.2752 15.0823 23.1848 14.7445 23.3778C14.2499 23.6582 13.7041 23.6673 13.1823 23.806C12.7149 23.9327 12.2324 23.9869 11.765 24.1196C11.3277 24.2433 10.9115 24.4815 10.4652 24.5629C10.0792 24.6323 9.663 24.5358 9.26493 24.5479C9.17144 24.5509 9.087 24.6956 8.98446 24.7047C8.90002 24.7107 8.76432 24.7348 8.67083 24.6926C8.63162 24.6745 8.5894 24.6504 8.55924 24.6806C8.42354 24.8253 7.1117 24.9037 6.96393 24.0895C6.82219 23.2933 7.98324 23.0822 8.48687 22.9526Z" fill="#035771"/>
<path d="M7.24104 30.1336C7.64213 30.0823 8.04323 30.0401 8.44432 30.0009C8.69161 29.9768 8.9389 29.9949 9.18015 29.8923C9.2465 29.8652 9.30983 29.7596 9.38221 29.8169C9.45157 29.7898 9.52093 29.7415 9.59331 29.7415C9.86472 29.7355 10.1452 29.6661 10.4045 29.7174C10.4136 29.7204 10.4287 29.6873 10.4437 29.6873C10.5161 29.6873 10.7725 29.7084 10.9353 29.6933C11.3123 29.6571 11.6923 29.642 12.0783 29.8441C12.1386 29.8742 12.9769 30.0371 13.0011 30.7186C13.0282 31.4273 12.2411 31.6806 12.1386 31.6595C11.8883 31.6052 11.6289 31.4514 11.3877 31.5872C11.0318 31.7832 10.6669 31.7017 10.308 31.753C9.98535 31.7982 9.65664 31.7771 9.33395 31.8284C9.02937 31.8767 8.73081 32.0455 8.42622 32.0516C8.16386 32.0576 7.89244 31.8917 7.62705 31.8405C7.56372 31.8284 7.49436 31.9581 7.42802 31.949C7.37072 31.943 7.27723 31.94 7.21993 31.8857C7.19581 31.8616 7.16867 31.8284 7.14454 31.8556C7.04201 31.9762 6.1584 31.8375 6.13126 31.0111C6.09809 30.1909 6.89122 30.1758 7.24104 30.1336Z" fill="#035771"/>
</svg>
