<svg width="85" height="26" viewBox="0 0 85 26" fill="none" xmlns="http://www.w3.org/2000/svg">
<path id="Line 2" d="M1.81437 20.2599C1.28581 20.0997 0.727513 20.3984 0.567374 20.927C0.407236 21.4555 0.705899 22.0138 1.23446 22.174L1.81437 20.2599ZM84.5042 3.04387C84.5655 2.495 84.1702 2.00035 83.6214 1.93903L74.677 0.939798C74.1281 0.87848 73.6335 1.27372 73.5722 1.82259C73.5109 2.37146 73.9061 2.86612 74.455 2.92743L82.4055 3.81564L81.5173 11.7662C81.456 12.315 81.8512 12.8097 82.4001 12.871C82.949 12.9323 83.4436 12.5371 83.5049 11.9882L84.5042 3.04387ZM79.9841 7.03043L84.1346 3.71409L82.8861 2.1516L78.7356 5.46794L79.9841 7.03043ZM1.23446 22.174C28.3767 30.3973 57.8276 24.7339 79.9841 7.03043L78.7356 5.46794C57.0935 22.7604 28.3264 28.2923 1.81437 20.2599L1.23446 22.174Z" fill="#035771"/>
</svg>
