<svg width="247" height="97" viewBox="0 0 247 97" fill="none" xmlns="http://www.w3.org/2000/svg">
<path d="M111.512 92.4111C103.625 91.8673 95.8152 91.3075 88.0643 90.3857C85.0397 90.0453 82.0321 89.61 79.0401 89.1769C78.5011 89.0989 77.9625 89.021 77.4245 88.9437L77.4194 88.9429C76.247 88.7661 75.0738 88.5673 73.9072 88.3697C73.3156 88.2694 72.7257 88.1695 72.1385 88.0728L72.1359 88.0724L69.5009 87.6291L69.4884 87.627L69.4884 87.6269L66.8819 87.143L66.8764 87.142C59.9273 85.7974 53.0976 84.1072 46.5329 82.011L46.5326 82.011C39.9781 79.9157 33.6706 77.4114 27.9486 74.3969L27.9482 74.3967C22.239 71.3847 17.0996 67.8327 13.2154 63.7147C10.0012 60.3707 7.75074 56.6313 6.51153 52.753L6.50974 52.7474C5.29769 48.8486 5.31422 44.8214 6.39924 40.9605C7.47457 37.0973 9.61156 33.4089 12.5127 30.0733C15.402 26.735 19.0139 23.697 23.1746 21.0799C27.3316 18.4653 32.0016 16.2279 37.0614 14.5058L37.0641 14.5049C39.5928 13.6549 42.1929 12.9098 44.9221 12.3293L44.9326 12.3271L44.9326 12.3272C45.4085 12.233 45.8958 12.1287 46.3902 12.0228C47.2543 11.8378 48.1398 11.6482 49.0232 11.5006L49.0284 11.4997L53.1684 10.8376L53.1771 10.8363L53.1858 10.8351C64.4401 9.30547 76.2272 9.55563 87.7609 10.9181C92.1794 11.4179 96.7295 12.3005 101.141 13.1562C101.454 13.2169 101.766 13.2774 102.077 13.3377L102.078 13.3378C103.073 13.5314 104.058 13.7276 105.034 13.9217C108.71 14.6534 112.245 15.3571 115.617 15.7909L115.577 16.1023L115.696 15.8793L115.725 15.8249C115.717 15.8242 115.708 15.8236 115.699 15.8231L115.725 15.8245L115.74 15.7965L115.74 15.7964L115.74 15.7965L115.741 15.7966L115.742 15.7972L115.748 15.7997L115.77 15.8087L115.836 15.8359C115.846 15.8401 115.856 15.8441 115.865 15.8478C117.321 16.1241 117.667 16.045 117.755 16.0131C117.772 16.0071 117.789 15.9992 117.823 15.9788C117.824 15.9779 117.829 15.9749 117.836 15.9705C117.87 15.9493 117.96 15.894 118.016 15.863C118.234 15.7424 118.488 15.6547 118.859 15.6291C119.094 15.6127 119.306 15.5942 119.496 15.5737C117.753 14.8483 114.111 13.75 108.257 12.5468L108.251 12.5454C107.743 12.436 107.232 12.3258 106.718 12.2149C105.852 12.0279 104.977 11.8391 104.094 11.6498L104.088 11.6485L101.994 11.1803L99.9316 10.7755L99.8812 10.7729L99.7904 10.7444C95.9803 9.55038 91.438 8.96241 86.8216 8.50176C86.0611 8.44488 85.307 8.38344 84.5574 8.32237C82.9912 8.19476 81.4444 8.06874 79.8992 7.98927L79.8913 7.98887L79.8835 7.9883C79.271 7.94397 78.655 7.89753 78.0455 7.85158C77.5176 7.81178 76.9946 7.77235 76.4829 7.73497C75.4272 7.66931 74.3951 7.5839 73.3725 7.47793L73.3722 7.48142C72.6675 7.51041 71.9551 7.53877 71.2362 7.5674C64.6898 7.82803 57.6122 8.10981 51.0513 9.07887C50.5317 9.16248 50.0162 9.2409 49.5046 9.31873C48.0829 9.535 46.6917 9.74665 45.3285 10.0519L45.3209 10.0536L45.3133 10.0551L42.4706 10.6299C41.538 10.8517 40.6014 11.0781 39.6832 11.3166C35.9938 12.2986 32.4687 13.5158 29.1354 14.9392C22.469 17.7859 16.6208 21.4685 11.9012 25.7628C7.23099 30.0743 3.70254 35.0269 2.12642 40.3746L2.12268 40.3873L2.12256 40.3873C0.463763 45.67 0.995921 51.4262 3.57839 56.715C5.0981 59.7919 7.24998 62.7481 9.93559 65.4501C12.6383 68.1547 15.7837 70.6374 19.2726 72.8374L19.2755 72.8392C22.7543 75.0553 26.5121 77.0375 30.4534 78.7915L30.4557 78.7925C34.3909 80.5594 38.4881 82.1259 42.6855 83.5001L42.6869 83.5005C51.0868 86.2689 59.8524 88.3669 68.7576 89.9498C77.619 91.5193 86.5879 92.7394 95.6007 93.6487C114.791 95.575 134.217 95.9959 153.361 94.8608C162.932 94.2932 172.435 93.3367 181.799 91.9879L181.8 91.9878C191.149 90.6496 200.46 88.9401 209.296 86.3339L209.297 86.3337C214.219 84.8884 218.985 83.1749 223.412 81.0899L223.413 81.0893C227.846 79.0119 231.906 76.5303 235.279 73.6466L235.28 73.6457C238.651 70.7751 241.324 67.4885 243.046 63.9877L243.047 63.986C244.778 60.4904 245.603 56.79 245.639 53.08C245.695 45.6476 242.702 38.1676 237.222 31.5572C231.71 24.9101 223.712 19.3507 214.612 15.0292L214.605 15.0259L214.598 15.0225C213.852 14.6489 213.065 14.3007 212.263 13.952C211.955 13.8181 211.655 13.685 211.359 13.5534C210.863 13.3328 210.376 13.1162 209.872 12.9065C209.342 12.6995 208.824 12.4908 208.309 12.2837C207.19 11.8332 206.091 11.3908 204.946 10.9927L204.936 10.9895L204.927 10.986C201.623 9.73983 198.179 8.69357 194.695 7.68286C187.7 5.76125 180.484 4.23737 173.139 3.24124L173.135 3.24067C158.447 1.1628 143.49 0.819508 128.8 1.17876C122.74 1.33605 117.809 1.78468 114.416 2.34868L114.416 2.34874C112.708 2.63168 111.423 2.937 110.582 3.24498C110.43 3.30064 110.299 3.35436 110.185 3.40544C110.401 3.44513 110.661 3.48159 110.968 3.51338C112.129 3.6337 113.768 3.67068 115.652 3.66031C117.923 3.64781 120.482 3.56793 122.916 3.49192C124.533 3.44144 126.095 3.39268 127.481 3.3665M111.512 92.4111L127.497 4.11634M111.512 92.4111L111.512 92.4257C119.836 92.8538 128.156 92.9551 136.445 92.8678L136.448 92.8678C152.144 92.6412 167.77 91.4555 182.981 89.1286C190.617 88.0207 198.075 86.5871 205.194 84.6608L205.197 84.6599C212.277 82.7087 219.074 80.2527 224.818 76.9583L224.821 76.9564C225.4 76.6208 225.98 76.2731 226.538 75.9023L226.552 75.8929L226.566 75.8828L228.098 74.7607L228.093 74.7523C231.24 72.6118 233.964 70.1682 236.049 67.4747C238.169 64.7529 239.654 61.7732 240.48 58.6592L240.482 58.6508C242.063 52.4067 241.025 45.8187 238.03 39.7106L238.028 39.7071C236.27 36.1691 233.832 32.7848 230.805 29.6844M111.512 92.4111L239.755 58.4668C241.284 52.4265 240.289 46.021 237.356 40.0409C235.636 36.5792 233.246 33.258 230.268 30.2084M127.481 3.3665C127.482 3.36649 127.482 3.36648 127.483 3.36647L127.497 4.11634M127.481 3.3665C127.481 3.36652 127.48 3.36653 127.48 3.36654L127.497 4.11634M127.481 3.3665C138.475 3.1102 149.491 3.19828 160.394 4.06771M127.497 4.11634C138.477 3.86032 149.466 3.94864 160.335 4.81537M160.394 4.06771L160.335 4.81537M160.394 4.06771C171.299 4.93122 182.061 6.59295 192.26 9.41115M160.394 4.06771C160.394 4.06772 160.394 4.06773 160.394 4.06774L160.335 4.81537M160.335 4.81537L192.26 9.41115M192.26 9.41115C192.26 9.41107 192.26 9.41098 192.259 9.41089L192.061 10.1341L192.26 9.41115ZM192.26 9.41115C202.437 12.2088 212.059 16.1049 220.115 21.199L220.116 21.1995C224.122 23.7386 227.786 26.5909 230.805 29.6844M192.26 9.41115L219.715 21.8329C223.682 24.3482 227.299 27.1652 230.268 30.2084M230.805 29.6844L230.268 30.2084M230.805 29.6844C230.805 29.6845 230.805 29.6845 230.805 29.6846L230.268 30.2084M227.689 74.1197C230.779 72.0165 233.434 69.6282 235.457 67.0138L227.689 74.1197ZM227.535 74.2434L227.562 74.2237L227.563 74.2229L227.975 74.8323C227.988 74.8236 228.001 74.8148 228.013 74.8061L228.017 74.8125L227.917 74.8676L227.535 74.2434ZM109.661 3.72277C109.658 3.72718 109.656 3.72937 109.656 3.72936C109.656 3.72936 109.657 3.72718 109.661 3.72277Z" fill="#035771" stroke="#EBF4F7" stroke-width="1.5"/>
</svg>
